<?xml version="1.0" standalone="no"?>
<!DOCTYPE svg PUBLIC "-//W3C//DTD SVG 20010904//EN"
 "http://www.w3.org/TR/2001/REC-SVG-20010904/DTD/svg10.dtd">
<svg version="1.0" xmlns="http://www.w3.org/2000/svg"
 width="512.000000pt" height="512.000000pt" viewBox="0 0 512.000000 512.000000"
 preserveAspectRatio="xMidYMid meet">
<metadata>
Created by potrace 1.14, written by Peter Selinger 2001-2017
</metadata>
<g transform="translate(0.000000,512.000000) scale(0.100000,-0.100000)"
fill="#000000" stroke="none">
<path d="M2355 5083 c-378 -39 -640 -113 -946 -269 -600 -305 -1054 -838
-1259 -1479 -36 -115 -76 -278 -86 -350 -3 -27 -8 -53 -10 -56 -18 -31 -27
-530 -11 -653 45 -355 155 -690 324 -985 35 -60 176 -270 200 -296 10 -11 39
-45 64 -75 296 -351 701 -623 1137 -766 115 -37 135 -42 307 -77 178 -37 200
-39 450 -42 233 -3 349 6 520 41 44 9 88 17 98 19 229 46 593 205 819 358 68
45 132 90 143 99 174 141 287 251 412 401 257 309 449 717 528 1122 37 191 44
274 40 525 -1 129 -5 246 -8 260 -3 14 -11 58 -17 99 -63 425 -266 875 -546
1211 -72 87 -237 258 -300 310 -255 214 -542 376 -856 484 -119 41 -328 89
-443 102 -27 3 -79 10 -115 14 -62 7 -382 10 -445 3z m1885 -2173 l0 -760
-1680 0 -1680 0 0 760 0 760 1680 0 1680 0 0 -760z m-2995 -1076 c123 -60 110
-243 -19 -287 -5 -2 15 -48 45 -102 30 -55 56 -103 57 -107 2 -5 -23 -8 -55
-8 l-58 0 -53 100 -53 100 -39 0 -40 0 0 -100 0 -100 -53 0 -53 0 2 263 c0
144 2 264 3 266 0 2 63 2 139 -1 109 -3 146 -8 177 -24z m544 -231 c50 -142
91 -261 91 -265 0 -5 -24 -8 -53 -8 l-52 0 -20 58 -20 57 -95 0 -95 0 -20 -57
-20 -58 -47 0 c-27 0 -48 4 -48 9 0 5 41 123 90 262 50 139 90 254 90 256 0 1
24 3 54 3 l53 0 92 -257z m397 87 c60 -93 112 -169 117 -170 4 0 7 77 7 170
l0 170 50 0 50 0 0 -265 0 -265 -52 0 -53 1 -114 169 c-63 93 -118 167 -122
164 -5 -3 -9 -79 -9 -170 l0 -164 -45 0 -45 0 0 265 0 265 53 0 54 0 109 -170z
m590 159 c134 -24 195 -94 202 -234 5 -101 -14 -168 -61 -212 -62 -59 -89 -67
-239 -71 l-138 -4 0 266 0 266 88 0 c49 0 115 -5 148 -11z m644 -13 c52 -26
105 -90 120 -144 5 -20 10 -67 10 -103 0 -159 -81 -255 -225 -267 -111 -8
-193 36 -242 132 -22 42 -26 65 -27 131 0 97 15 145 63 198 50 56 101 77 186
76 53 0 81 -5 115 -23z m390 2 c5 -13 33 -99 61 -193 54 -179 55 -182 65 -172
5 5 68 214 105 350 l10 37 74 0 75 0 0 -265 0 -265 -50 0 -50 0 0 175 c0 163
-9 218 -24 144 -3 -17 -27 -96 -52 -175 l-46 -144 -52 0 -53 0 -46 148 c-26
81 -50 162 -53 179 -14 73 -24 12 -24 -153 l0 -174 -45 0 -45 0 0 265 0 265
70 0 c64 0 71 -2 80 -22z"/>
<path d="M2563 3345 c-148 -40 -239 -133 -287 -295 -12 -38 -17 -91 -16 -175
0 -183 39 -287 140 -378 79 -71 141 -91 280 -91 141 0 202 20 274 91 50 49
100 137 111 194 l6 34 -90 19 c-50 10 -94 19 -97 20 -8 1 -15 -11 -39 -71 -69
-166 -288 -152 -349 23 -40 116 -28 302 26 380 46 67 137 99 211 75 45 -15 92
-68 108 -121 9 -29 18 -40 32 -40 29 0 187 50 187 59 0 23 -34 102 -63 144
-81 121 -266 177 -434 132z"/>
<path d="M1203 3342 l-33 -3 0 -465 0 -465 93 3 92 3 3 285 3 285 33 -110 c52
-174 139 -439 149 -452 10 -14 164 -18 182 -5 10 7 140 394 167 496 12 45 13
24 18 -225 l5 -274 100 0 100 0 3 463 2 462 -40 1 c-22 0 -69 1 -105 1 -36 0
-82 -1 -104 -1 l-38 -1 -87 -307 c-48 -170 -90 -316 -94 -327 -6 -14 -16 9
-39 85 -70 234 -165 544 -169 548 -4 4 -199 7 -241 3z"/>
<path d="M3833 3342 l-81 -3 -4 -317 c-4 -344 -7 -360 -62 -412 -21 -19 -40
-25 -89 -28 -86 -6 -129 14 -159 70 -22 42 -23 51 -26 366 l-3 322 -105 0
-105 0 3 -348 3 -347 33 -68 c63 -127 154 -172 347 -172 111 0 125 2 183 29
76 35 132 95 164 175 21 53 23 71 26 392 l3 336 -23 4 c-13 2 -60 3 -105 1z"/>
<path d="M1032 1693 l3 -78 65 0 c87 0 120 20 120 73 0 64 -28 82 -125 82
l-66 0 3 -77z"/>
<path d="M1603 1621 c-17 -49 -29 -92 -25 -95 7 -8 117 -8 124 0 8 7 -51 184
-61 184 -4 0 -21 -40 -38 -89z"/>
<path d="M2644 1757 c-2 -7 -3 -87 -2 -177 l3 -165 55 -3 c127 -6 191 82 168
232 -12 83 -72 126 -176 126 -26 0 -45 -5 -48 -13z"/>
<path d="M3263 1768 c-66 -18 -110 -107 -100 -206 10 -97 63 -155 142 -155 86
0 139 69 139 183 0 132 -75 207 -181 178z"/>
</g>
</svg>
