<?xml version="1.0" encoding="utf-8"?>
<!-- Generator: Adobe Illustrator 27.4.0, SVG Export Plug-In . SVG Version: 6.00 Build 0)  -->
<svg version="1.1" id="Layer_2" xmlns="http://www.w3.org/2000/svg" xmlns:xlink="http://www.w3.org/1999/xlink" x="0px" y="0px"
	 viewBox="0 0 737 203" style="enable-background:new 0 0 737 203;" xml:space="preserve">
<style type="text/css">
	.st0{fill:#aaaaaa;}
</style>
<g>
	<g>
		<path class="st0" d="M723,14v175H14V14H723 M737,0H0v203h737V0L737,0z"/>
	</g>
	<g>
		<path class="st0" d="M62.5,63.4h29.2l22.1,53.3h0.3L135,63.4h29.2v77.6h-19.4V86h-0.3l-23.1,55h-16L82.2,86.5H82v54.4H62.5V63.4z"
			/>
		<path class="st0" d="M207.8,63.4h21.3l35.3,77.6h-21.5l-7.1-17.3h-35.3l-7.4,17.3h-20.9L207.8,63.4z M230.3,111l-11.9-28.5h-0.3
			L205.8,111H230.3z"/>
		<path class="st0" d="M272.1,63.4h42.6c5.9,0,10.9,0.7,15.1,2.1c4.1,1.4,7.5,3.3,10.1,5.6c2.6,2.3,4.5,5,5.7,8
			c1.2,3,1.8,6.1,1.8,9.2c0,3.2-0.6,6.3-1.8,9.2c-1.2,3-3.1,5.6-5.7,7.9c-2.6,2.3-6,4.2-10.1,5.6c-4.1,1.4-9.2,2.1-15.1,2.1h-21.8
			v27.8h-20.7V63.4z M309,99.9c2.4,0,4.7-0.1,6.9-0.4c2.2-0.3,4.1-0.9,5.8-1.7c1.7-0.8,3-2,4-3.5c1-1.5,1.5-3.5,1.5-6
			c0-2.5-0.5-4.5-1.5-6c-1-1.5-2.4-2.7-4-3.5c-1.7-0.8-3.6-1.4-5.8-1.7c-2.2-0.3-4.5-0.4-6.9-0.4h-16.1v23.2H309z"/>
		<path class="st0" d="M359.9,63.4h20.7v63.2h28.5V63.4h20.7v63.2h28.5V63.4h20.8v77.6H359.9V63.4z"/>
		<path class="st0" d="M497.1,63.4h20.6v53.8h0.4L554,63.4h23.3v77.6h-20.6V87.1h-0.4l-35.9,53.9h-23.3V63.4z"/>
		<path class="st0" d="M595.1,63.4h20.7v29.8h38.2V63.4h20.7v77.6h-20.7v-33.5h-38.2v33.5h-20.7V63.4z"/>
	</g>
</g>
</svg>
